<svg width="57" height="65" viewBox="0 0 57 65" fill="none" xmlns="http://www.w3.org/2000/svg">
<g clip-path="url(#clip0_1_2029)">
<path d="M28.5995 64.5C27.7415 64.5 26.9407 64.2668 26.1972 63.8586L18.5898 59.2517C17.4459 58.6102 18.0178 58.377 18.3611 58.2603C19.9054 57.7355 20.1914 57.6189 21.7929 56.6859C21.9645 56.5692 22.1933 56.6275 22.3649 56.7442L28.1991 60.3014C28.4279 60.418 28.7139 60.418 28.8855 60.3014L51.7074 46.8307C51.9362 46.714 52.0506 46.4808 52.0506 46.1892V19.306C52.0506 19.0145 51.9362 18.7812 51.7074 18.6646L28.8855 5.25223C28.6567 5.13561 28.3706 5.13561 28.1991 5.25223L5.37713 18.6646C5.14834 18.7812 5.03394 19.0728 5.03394 19.306V46.1892C5.03394 46.4224 5.14834 46.714 5.37713 46.8307L11.6117 50.5045C14.9864 52.2539 17.1027 50.2129 17.1027 48.1719V21.6386C17.1027 21.2888 17.3887 20.9389 17.7891 20.9389H20.7062C21.0494 20.9389 21.3925 21.2305 21.3925 21.6386V48.1719C21.3925 52.7788 18.933 55.4613 14.6432 55.4613C13.3276 55.4613 12.2981 55.4613 9.38096 54.0034L3.37521 50.5045C1.88807 49.6297 0.9729 47.9969 0.9729 46.2475V19.3644C0.9729 17.615 1.88807 15.9822 3.37521 15.1074L26.1972 1.63672C27.6271 0.820313 29.5718 0.820313 31.0018 1.63672L53.8237 15.1074C55.3109 15.9822 56.226 17.615 56.226 19.3644V46.2475C56.226 47.9969 55.3109 49.6297 53.8237 50.5045L31.0018 63.9752C30.3154 64.2668 29.4575 64.5 28.5995 64.5Z" fill="#5FA04E"/>
<path d="M35.692 46.0142C25.6824 46.0142 23.6233 41.349 23.6233 37.3836C23.6233 37.0338 23.9093 36.6839 24.3096 36.6839H27.2839C27.6271 36.6839 27.9131 36.9172 27.9131 37.267C28.3707 40.3577 29.6863 41.8739 35.7492 41.8739C40.5538 41.8739 42.613 40.7659 42.613 38.1417C42.613 36.6256 42.041 35.5176 34.548 34.7595C28.3135 34.118 24.4241 32.7185 24.4241 27.6451C24.4241 22.9216 28.3135 20.1225 34.8341 20.1225C42.1553 20.1225 45.7588 22.6883 46.2164 28.2865C46.2164 28.4615 46.1592 28.6364 46.0448 28.8114C45.9305 28.928 45.7588 29.0447 45.5872 29.0447H42.5558C42.2697 29.0447 41.9838 28.8114 41.9266 28.5198C41.2402 25.3125 39.4671 24.2628 34.7769 24.2628C29.5146 24.2628 28.8855 26.1289 28.8855 27.5284C28.8855 29.2196 29.6291 29.7445 36.7216 30.6775C43.7569 31.6105 47.0744 32.9517 47.0744 37.9668C47.0744 43.0985 42.8989 46.0142 35.692 46.0142Z" fill="#5FA04E"/>
</g>
<defs>
<clipPath id="clip0_1_2029">
<rect width="56.32" height="64" fill="white" transform="translate(0.340027 0.5)"/>
</clipPath>
</defs>
</svg>
