<svg width="31" height="65" viewBox="0 0 31 65" fill="none" xmlns="http://www.w3.org/2000/svg">
<g clip-path="url(#clip0_1_2050)">
<path d="M21.2076 7.63325C18.5097 4.44632 16.1865 1.20959 15.7118 0.537347C15.6619 0.487551 15.5869 0.487551 15.5369 0.537347C15.0623 1.20959 12.739 4.44632 10.0411 7.63325C-13.1163 37.0376 13.6884 56.8813 13.6884 56.8813L13.9132 57.0306C14.113 60.0932 14.6126 64.5 14.6126 64.5H15.6119H16.6111C16.6111 64.5 17.1108 60.118 17.3106 57.0306L17.5354 56.8565C17.5604 56.8565 44.365 37.0376 21.2076 7.63325ZM15.6119 56.433C15.6119 56.433 14.4128 55.4123 14.0881 54.8893V54.8397L15.5369 22.8209C15.5369 22.7213 15.6868 22.7213 15.6868 22.8209L17.1357 54.8397V54.8893C16.811 55.4123 15.6119 56.433 15.6119 56.433Z" fill="#00684A"/>
</g>
<defs>
<clipPath id="clip0_1_2050">
<rect width="29.7674" height="64" fill="white" transform="translate(0.61628 0.5)"/>
</clipPath>
</defs>
</svg>
