<svg width="70" height="65" viewBox="0 0 70 65" fill="none" xmlns="http://www.w3.org/2000/svg">
<g clip-path="url(#clip0_1_2011)">
<path d="M35.0909 39.2725C38.7633 39.2725 41.7403 36.2403 41.7403 32.5C41.7403 28.7597 38.7633 25.7275 35.0909 25.7275C31.4186 25.7275 28.4416 28.7597 28.4416 32.5C28.4416 36.2403 31.4186 39.2725 35.0909 39.2725Z" fill="#087EA4"/>
<path d="M35.0909 47.7381C53.4526 47.7381 68.3377 40.9158 68.3377 32.5C68.3377 24.0842 53.4526 17.2619 35.0909 17.2619C16.7292 17.2619 1.84416 24.0842 1.84416 32.5C1.84416 40.9158 16.7292 47.7381 35.0909 47.7381Z" stroke="#087EA4" stroke-width="3"/>
<path d="M22.1343 40.1191C31.3151 56.3152 44.5585 66.0336 51.7143 61.8257C58.87 57.6179 57.2284 41.0771 48.0476 24.881C38.8667 8.68481 25.6233 -1.0336 18.4675 3.17429C11.3118 7.38217 12.9534 23.9229 22.1343 40.1191Z" stroke="#087EA4" stroke-width="3"/>
<path d="M22.1343 24.881C12.9534 41.0771 11.3118 57.6179 18.4675 61.8257C25.6233 66.0336 38.8667 56.3152 48.0476 40.1191C57.2284 23.9229 58.87 7.38217 51.7143 3.17429C44.5585 -1.0336 31.3151 8.68481 22.1343 24.881Z" stroke="#087EA4" stroke-width="3"/>
</g>
<defs>
<clipPath id="clip0_1_2011">
<rect width="69.8182" height="64" fill="white" transform="translate(0.181824 0.5)"/>
</clipPath>
</defs>
</svg>
