<svg width="65" height="65" viewBox="0 0 65 65" fill="none" xmlns="http://www.w3.org/2000/svg">
<g clip-path="url(#clip0_1_2006)">
<path d="M61.0909 0.5H3.09091C1.43406 0.5 0.0909119 1.84315 0.0909119 3.5V61.5C0.0909119 63.1569 1.43406 64.5 3.09091 64.5H61.0909C62.7478 64.5 64.0909 63.1569 64.0909 61.5V3.5C64.0909 1.84315 62.7478 0.5 61.0909 0.5Z" fill="#3178C6"/>
<path fill-rule="evenodd" clip-rule="evenodd" d="M37.222 50.234V57.247C38.3582 57.831 39.7019 58.2695 41.2533 58.5615C42.8046 58.854 44.4397 59 46.1585 59C47.8337 59 49.425 58.8395 50.9324 58.518C52.4404 58.1965 53.7619 57.667 54.8984 56.929C56.0344 56.191 56.9339 55.227 57.5969 54.036C58.2594 52.8455 58.5909 51.3735 58.5909 49.6203C58.5909 48.3493 58.4014 47.2353 58.0229 46.2783C57.6439 45.3214 57.0979 44.4704 56.3839 43.7252C55.6704 42.9801 54.8144 42.3117 53.8169 41.72C52.8189 41.1283 51.6939 40.5694 50.4409 40.0435C49.5233 39.6636 48.7003 39.2947 47.972 38.9368C47.2437 38.5788 46.6246 38.2136 46.1148 37.841C45.605 37.4684 45.2117 37.074 44.9349 36.6576C44.6582 36.2413 44.5198 35.77 44.5198 35.2441C44.5198 34.7619 44.6436 34.3273 44.8912 33.9402C45.1389 33.553 45.4885 33.2206 45.94 32.943C46.3916 32.6655 46.9451 32.45 47.6006 32.2966C48.2561 32.1431 48.9844 32.0664 49.7855 32.0664C50.3684 32.0664 50.9834 32.1103 51.6319 32.1979C52.2799 32.2856 52.9319 32.4207 53.5874 32.6034C54.2429 32.786 54.8799 33.0161 55.4994 33.2937C56.1184 33.5713 56.6899 33.8927 57.2144 34.2579V27.7054C56.1509 27.2963 54.9894 26.9931 53.7294 26.7959C52.4694 26.5986 51.0239 26.5 49.3922 26.5C47.7317 26.5 46.1585 26.6789 44.6727 27.0369C43.187 27.3948 41.8796 27.9537 40.7507 28.7134C39.6218 29.4731 38.7296 30.441 38.0742 31.6171C37.4187 32.7932 37.0909 34.1995 37.0909 35.8358C37.0909 37.9251 37.6918 39.7074 38.8935 41.183C40.0953 42.6587 41.9197 43.9079 44.3668 44.9305C45.3282 45.325 46.2241 45.7122 47.0543 46.092C47.8846 46.4719 48.602 46.8664 49.2065 47.2755C49.811 47.6846 50.2879 48.1302 50.6374 48.6123C50.9874 49.0944 51.1619 49.6423 51.1619 50.2559C51.1619 50.709 51.0529 51.129 50.8344 51.516C50.6159 51.903 50.2844 52.239 49.8402 52.524C49.3959 52.809 48.8424 53.032 48.1796 53.1925C47.5168 53.353 46.7412 53.4335 45.8526 53.4335C44.3377 53.4335 42.8374 53.167 41.3516 52.6335C39.8658 52.1005 38.4893 51.3005 37.222 50.234ZM25.4422 32.7772H34.5909V27H9.09091V32.7772H18.1949V58.5H25.4422V32.7772Z" fill="white"/>
</g>
<defs>
<clipPath id="clip0_1_2006">
<rect width="64" height="64" fill="white" transform="translate(0.0909119 0.5)"/>
</clipPath>
</defs>
</svg>
