<svg width="64" height="65" viewBox="0 0 64 65" fill="none" xmlns="http://www.w3.org/2000/svg">
<path d="M56.2667 29.9667L34.5333 8.23332C33.8667 7.56666 32.9333 7.16666 32 7.16666C31.0667 7.16666 30.1333 7.56666 29.4667 8.23332L24.8 12.9L30.2667 18.3667C30.8 18.1 31.3333 17.9667 32 17.9667C34.2667 17.9667 36 19.7 36 21.9667C36 22.6333 35.8667 23.1667 35.6 23.7L40.9333 29.0333C41.4667 28.7667 42 28.6333 42.6667 28.6333C44.9333 28.6333 46.6667 30.3667 46.6667 32.6333C46.6667 34.9 44.9333 36.6333 42.6667 36.6333C40.4 36.6333 38.6667 34.9 38.6667 32.6333C38.6667 31.9667 38.8 31.4333 39.0667 30.9L33.7333 25.5667C33.6 25.5667 33.4667 25.7 33.3333 25.7V39.5667C34.9333 40.1 36 41.5667 36 43.3C36 45.5667 34.2667 47.3 32 47.3C29.7333 47.3 28 45.5667 28 43.3C28 41.5667 29.0667 40.1 30.6667 39.5667V25.5667C29.0667 25.0333 28 23.5667 28 21.8333C28 21.1667 28.1333 20.6333 28.4 20.1L22.9333 14.6333L7.73334 29.9667C7.06667 30.6333 6.66667 31.5667 6.66667 32.5C6.66667 33.4333 7.06667 34.3667 7.73334 35.0333L29.4667 56.7667C30.1333 57.4333 31.0667 57.8333 32 57.8333C32.9333 57.8333 33.8667 57.4333 34.5333 56.7667L56.2667 35.0333C56.9333 34.3667 57.3333 33.4333 57.3333 32.5C57.3333 31.5667 56.9333 30.6333 56.2667 29.9667Z" fill="#F4511E"/>
</svg>
