<svg width="65" height="65" viewBox="0 0 65 65" fill="none" xmlns="http://www.w3.org/2000/svg">
<g clip-path="url(#clip0_1_2019)">
<mask id="mask0_1_2019" style="mask-type:alpha" maskUnits="userSpaceOnUse" x="0" y="0" width="65" height="65">
<path d="M32.9091 64.5C50.5822 64.5 64.9091 50.1731 64.9091 32.5C64.9091 14.8269 50.5822 0.5 32.9091 0.5C15.236 0.5 0.909119 14.8269 0.909119 32.5C0.909119 50.1731 15.236 64.5 32.9091 64.5Z" fill="black"/>
</mask>
<g mask="url(#mask0_1_2019)">
<path d="M32.9091 63.4333C49.9931 63.4333 63.8425 49.584 63.8425 32.5C63.8425 15.416 49.9931 1.56665 32.9091 1.56665C15.8251 1.56665 1.9758 15.416 1.9758 32.5C1.9758 49.584 15.8251 63.4333 32.9091 63.4333Z" fill="black" stroke="white" stroke-width="6"/>
<path d="M54.0675 56.5071L25.493 19.7H20.1091V45.2893H24.4162V25.1697L50.6866 59.1116C51.872 58.3183 53.0012 57.4476 54.0675 56.5071Z" fill="url(#paint0_linear_1_2019)"/>
<path d="M46.0647 19.7H41.798V45.3H46.0647V19.7Z" fill="url(#paint1_linear_1_2019)"/>
</g>
</g>
<defs>
<linearGradient id="paint0_linear_1_2019" x1="39.6647" y1="41.9222" x2="52.2869" y2="57.5667" gradientUnits="userSpaceOnUse">
<stop stop-color="white"/>
<stop offset="1" stop-color="white" stop-opacity="0"/>
</linearGradient>
<linearGradient id="paint1_linear_1_2019" x1="43.9314" y1="19.7" x2="43.8599" y2="38.5" gradientUnits="userSpaceOnUse">
<stop stop-color="white"/>
<stop offset="1" stop-color="white" stop-opacity="0"/>
</linearGradient>
<clipPath id="clip0_1_2019">
<rect width="64" height="64" fill="white" transform="translate(0.909119 0.5)"/>
</clipPath>
</defs>
</svg>
