<svg width="105" height="65" viewBox="0 0 105 65" fill="none" xmlns="http://www.w3.org/2000/svg">
<g clip-path="url(#clip0_1_2058)">
<mask id="mask0_1_2058" style="mask-type:luminance" maskUnits="userSpaceOnUse" x="0" y="0" width="105" height="64">
<path d="M0.0909424 0.5H104.818V63.3364H0.0909424V0.5Z" fill="white"/>
</mask>
<g mask="url(#mask0_1_2058)">
<path fill-rule="evenodd" clip-rule="evenodd" d="M52.4546 0.5C38.4909 0.5 29.7637 7.48182 26.2728 21.4455C31.5091 14.4636 37.6182 11.8455 44.6 13.5909C48.5835 14.5858 51.4306 17.4775 54.5821 20.6755C59.7157 25.8867 65.658 31.9182 78.6364 31.9182C92.6 31.9182 101.327 24.9364 104.818 10.9727C99.5818 17.9545 93.4728 20.5727 86.4909 18.8273C82.5074 17.8324 79.6604 14.9407 76.5089 11.7427C71.3753 6.53151 65.433 0.5 52.4546 0.5ZM26.2728 31.9182C12.3091 31.9182 3.58185 38.9 0.0909424 52.8636C5.32731 45.8818 11.4364 43.2636 18.4182 45.0091C22.4017 46.0059 25.2488 48.8956 28.4003 52.0937C33.5339 57.3048 39.4762 63.3364 52.4546 63.3364C66.4182 63.3364 75.1455 56.3545 78.6364 42.3909C73.4 49.3727 67.2909 51.9909 60.3091 50.2455C56.3256 49.2505 53.4786 46.3589 50.3271 43.1608C45.1935 37.9497 39.2512 31.9182 26.2728 31.9182Z" fill="#38BDF8"/>
</g>
</g>
<defs>
<clipPath id="clip0_1_2058">
<rect width="104.727" height="64" fill="white" transform="translate(0.0909424 0.5)"/>
</clipPath>
</defs>
</svg>
